<?xml version="1.0" encoding="utf-8"?>
<!-- Generator: Adobe Illustrator 18.0.0, SVG Export Plug-In . SVG Version: 6.00 Build 0)  -->
<!DOCTYPE svg PUBLIC "-//W3C//DTD SVG 1.1 Tiny//EN" "http://www.w3.org/Graphics/SVG/1.1/DTD/svg11-tiny.dtd">
<svg version="1.1" baseProfile="tiny" id="OpenML" xmlns="http://www.w3.org/2000/svg" xmlns:xlink="http://www.w3.org/1999/xlink"
	 x="0px" y="0px" width="1300px" height="500px" viewBox="0 0 1300 500" xml:space="preserve">
<g>
	<g>
		<path fill="#FE370F" d="M214.6,211.8c3.8-11.8,9.4-22.2,16.9-31.3c7.5-9.1,16.9-16.3,28.1-21.7c11.2-5.4,24.2-8.1,39.1-8.1
			c14.9,0,27.9,2.7,39.1,8.1c11.2,5.4,20.6,12.6,28.1,21.7c7.5,9.1,13.2,19.5,16.9,31.3c3.8,11.8,5.7,24,5.7,36.7
			c0,12.7-1.9,25-5.7,36.8c-3.8,11.8-9.4,22.2-16.9,31.3c-7.5,9.1-16.9,16.3-28.1,21.6c-11.2,5.3-24.2,8-39.1,8
			c-14.9,0-27.9-2.7-39.1-8c-11.2-5.3-20.6-12.5-28.1-21.6c-7.5-9.1-13.2-19.5-16.9-31.3c-3.8-11.8-5.6-24-5.6-36.8
			C208.9,235.8,210.8,223.6,214.6,211.8z M237.5,276.5c2.5,9.2,6.3,17.4,11.6,24.7c5.3,7.3,12,13.2,20.2,17.7
			c8.2,4.5,18,6.7,29.4,6.7c11.4,0,21.2-2.2,29.4-6.7c8.2-4.5,15-10.3,20.2-17.7c5.3-7.3,9.1-15.6,11.6-24.7
			c2.5-9.2,3.7-18.5,3.7-27.9c0-9.4-1.2-18.7-3.7-27.9c-2.5-9.2-6.3-17.4-11.6-24.7c-5.3-7.3-12-13.2-20.2-17.7
			c-8.2-4.5-18.1-6.7-29.4-6.7c-11.4,0-21.2,2.2-29.4,6.7c-8.2,4.5-15,10.3-20.2,17.7c-5.3,7.3-9.1,15.6-11.6,24.7
			c-2.5,9.2-3.7,18.5-3.7,27.9C233.8,258.1,235,267.4,237.5,276.5z"/>
		<path fill="#FE370F" d="M425.6,223v16.1h0.4c3.2-6.6,8.3-11.4,15.2-14.4c6.9-3,14.5-4.5,22.8-4.5c9.2,0,17.2,1.7,24.1,5.1
			c6.8,3.4,12.5,7.9,17,13.7c4.5,5.8,7.9,12.4,10.2,19.9c2.3,7.5,3.5,15.5,3.5,24c0,8.4-1.1,16.4-3.3,24
			c-2.2,7.5-5.6,14.1-10.1,19.7c-4.5,5.6-10.2,10-17,13.2c-6.8,3.2-14.8,4.8-23.8,4.8c-2.9,0-6.2-0.3-9.8-0.9
			c-3.6-0.6-7.2-1.6-10.7-3c-3.5-1.4-6.9-3.3-10-5.6c-3.1-2.4-5.8-5.3-7.9-8.9h-0.4v61.5h-19.7V223H425.6z M495.6,265.3
			c-1.5-5.3-3.7-10-6.7-14.2c-3-4.1-6.8-7.4-11.5-9.9c-4.7-2.5-10.1-3.7-16.4-3.7c-6.6,0-12.2,1.3-16.8,3.9
			c-4.6,2.6-8.3,6-11.3,10.2c-2.9,4.2-5,9-6.3,14.4c-1.3,5.4-1.9,10.8-1.9,16.3c0,5.8,0.7,11.5,2.1,16.9c1.4,5.5,3.6,10.2,6.5,14.4
			c3,4.1,6.8,7.5,11.6,10c4.7,2.5,10.5,3.8,17.2,3.8c6.7,0,12.4-1.3,16.9-3.9c4.5-2.6,8.2-6.1,10.9-10.4c2.8-4.3,4.7-9.2,6-14.7
			c1.2-5.5,1.8-11.2,1.8-17C497.8,276,497.1,270.6,495.6,265.3z"/>
		<path fill="#FE370F" d="M619.4,334.4c-8.9,6.7-20.1,10.1-33.7,10.1c-9.5,0-17.8-1.5-24.8-4.6c-7-3.1-12.9-7.4-17.7-12.9
			c-4.8-5.5-8.3-12.1-10.7-19.8c-2.4-7.7-3.7-16-4-25.1c0-9.1,1.4-17.3,4.2-24.9c2.8-7.5,6.7-14.1,11.7-19.6
			c5-5.5,10.9-9.8,17.8-12.9c6.8-3.1,14.4-4.6,22.5-4.6c10.6,0,19.4,2.2,26.4,6.6c7,4.4,12.6,10,16.9,16.7
			c4.2,6.8,7.2,14.2,8.8,22.1c1.6,8,2.3,15.6,2,22.8h-89.2c-0.2,5.2,0.5,10.2,1.8,14.8c1.4,4.7,3.6,8.8,6.7,12.4
			c3.1,3.6,7,6.5,11.7,8.6c4.8,2.1,10.4,3.2,16.8,3.2c8.3,0,15.1-1.9,20.4-5.8c5.3-3.8,8.8-9.7,10.5-17.5h19.4
			C634.1,317.6,628.3,327.7,619.4,334.4z M614.6,258c-1.8-4.1-4.1-7.7-7.1-10.7c-3-3-6.5-5.4-10.6-7.1c-4.1-1.8-8.5-2.6-13.5-2.6
			c-5.1,0-9.6,0.9-13.7,2.6c-4.1,1.8-7.5,4.2-10.5,7.2c-2.9,3.1-5.2,6.6-6.9,10.7c-1.7,4.1-2.7,8.4-3,13h68.3
			C617.4,266.5,616.4,262.2,614.6,258z"/>
		<path fill="#FE370F" d="M670.3,223v18.9h0.4c8.2-14.4,21.1-21.7,38.9-21.7c7.9,0,14.4,1.1,19.7,3.2c5.2,2.2,9.5,5.2,12.7,9
			c3.2,3.8,5.5,8.4,6.8,13.7c1.3,5.3,2,11.2,2,17.6v78.4H731v-80.6c0-7.4-2.2-13.2-6.5-17.5c-4.3-4.3-10.2-6.5-17.8-6.5
			c-6,0-11.2,0.9-15.6,2.8c-4.4,1.8-8,4.5-11,7.8c-2.9,3.4-5.1,7.3-6.6,11.9c-1.5,4.5-2.2,9.5-2.2,14.9v67.3h-19.7V223H670.3z"/>
	</g>
	<path fill="#FE370F" d="M814.5,365.4c-62.8,38.2-156.9,60-261.9,60c-189.1,0-342.4-78.8-342.4-175.9S363.5,73.6,552.6,73.6
		c105.4,0,199.8,22.1,262.6,60.6C746.7,69.8,623.8,24.5,483.2,24.5c-215.3,0-389.8,100.7-389.8,224.9c0,124.3,174.5,225,389.8,225.1
		C623.1,474.5,745.7,429.4,814.5,365.4z"/>
</g>
<g>
	<path fill="#FE370F" d="M783.5,154.7h58.2l43.9,129.2h0.5l41.6-129.2h58.2v187.9h-38.7V209.4h-0.5l-46.1,133.2h-31.8l-46.1-131.8
		h-0.5v131.8h-38.7V154.7z"/>
	<path fill="#FE370F" d="M1014.3,154.7h41.3v153.2h91.6v34.7h-132.9V154.7z"/>
</g>
<g>
	<polygon fill="#FE370F" points="1185.1,323.5 1177.8,323.5 1177.8,342.6 1171.4,342.6 1171.4,323.5 1164,323.5 1164,317.9 
		1185.1,317.9 1185.1,323.5 	"/>
	<polygon fill="#FE370F" points="1188,317.9 1197.4,317.9 1201.7,334.4 1201.8,334.4 1206,317.9 1215.5,317.9 1215.5,342.6 
		1209.4,342.6 1209.4,323.9 1209.3,323.9 1204.2,342.6 1199.3,342.6 1194.1,323.9 1194,323.9 1194,342.6 1188,342.6 1188,317.9 	"/>
</g>
</svg>
