<?xml version="1.0" encoding="UTF-8"?>
<svg version="1.1" xmlns="http://www.w3.org/2000/svg" width="260" height="318">
<path d="M0 0 C1.84078125 -0.01546875 1.84078125 -0.01546875 3.71875 -0.03125 C13.47697299 1.33974001 19.22667626 7.64881523 25.87573242 14.3581543 C26.89259418 15.36958743 27.91030304 16.3801695 28.92878723 17.38996887 C31.67760891 20.12064008 34.41372827 22.86371047 37.14711928 25.60981727 C40.01885589 28.49172732 42.90039251 31.36381253 45.78034973 34.23750305 C50.61493327 39.06482163 55.44105066 43.90048382 60.26245117 48.7409668 C65.82291922 54.32318894 71.39763328 59.89087212 76.97998923 65.45119923 C81.78589636 70.23890478 86.58390239 75.03442365 91.37549287 79.83645755 C94.23138872 82.6985638 97.08985697 85.55796035 99.95549583 88.41031456 C102.65116207 91.09435396 105.33671862 93.78812863 108.01505852 96.48945427 C108.99476703 97.47441409 109.97782516 98.45605627 110.96459579 99.43394089 C118.91633906 107.32069903 124.8687723 114.29403992 125.75 125.75 C124.77914705 140.31279421 113.27310278 148.87103263 103.54907227 158.65966797 C102.58845666 159.62985533 101.62800217 160.60020222 100.66769409 161.57069397 C97.55438327 164.71495725 94.43590296 167.85406276 91.31640625 170.9921875 C90.78268615 171.52920493 90.24896604 172.06622235 89.6990726 172.61951303 C84.65399386 177.69531157 79.60688219 182.76908075 74.55494785 187.83805656 C68.13030499 194.28464435 61.71597353 200.741129 55.31511074 207.21133125 C50.79031637 211.78345166 46.25400474 216.34394308 41.70911449 220.89608681 C39.00402185 223.60611456 36.30413845 226.32087995 33.61660957 229.04833603 C31.09088338 231.61110404 28.55109375 234.15907061 26.00017929 236.69676018 C24.63230503 238.06471345 23.27927659 239.44746256 21.92689514 240.83073425 C15.28366642 247.39672825 8.90753264 251.40034896 -0.5625 252 C-17.27777587 251.13946318 -29.73936023 233.41891277 -40.67797852 222.45239258 C-43.18849074 219.93650714 -45.70432064 217.42602814 -48.22070312 214.91601562 C-49.83886249 213.29719563 -51.45671172 211.67806555 -53.07421875 210.05859375 C-53.81604904 209.31878769 -54.55787933 208.57898163 -55.32218933 207.8167572 C-58.58730959 204.53709919 -61.76565053 201.23923004 -64.76806641 197.71655273 C-69.20301501 192.57689606 -74.08327807 187.88624773 -78.93323326 183.14442825 C-81.88496481 180.25441715 -84.82078993 177.34828419 -87.75976562 174.4453125 C-91.47802466 170.77490034 -95.2006773 167.1092557 -98.9387207 163.45898438 C-101.98150142 160.48682339 -105.00909621 157.49990276 -108.02741432 154.50291061 C-109.17137125 153.37244678 -110.32069389 152.24738359 -111.47565269 151.12816238 C-119.3071031 143.53265556 -125.33147038 136.76076458 -125.9375 125.375 C-125.16961873 110.87559477 -113.26114239 102.11392234 -103.60913086 92.43212891 C-102.65510264 91.4718137 -101.70125582 90.51131825 -100.74757385 89.55065918 C-97.65681201 86.43915361 -94.56098709 83.33271162 -91.46484375 80.2265625 C-90.39112421 79.14878694 -89.3174353 78.07098088 -88.24377632 76.99314499 C-83.20491851 71.93531619 -78.16370791 66.8798472 -73.11954874 61.82730544 C-67.32122456 56.01918068 -61.53130812 50.20283744 -55.74825376 44.37950957 C-51.25652029 39.85758195 -46.75710498 35.34339046 -42.25190455 30.83488023 C-39.56963886 28.15027189 -36.89073475 25.4625061 -34.21995354 22.76646805 C-31.71124209 20.23440669 -29.19309277 17.71212106 -26.66756248 15.19683838 C-25.30985015 13.83985352 -23.96202567 12.47299764 -22.61459351 11.10580444 C-15.78835546 4.3371903 -10.02825998 -0.08427109 0 0 Z " fill="#FAFBFC" transform="translate(131.5,2.5)"/>
<path d="M0 0 C5.34561542 4.46846026 10.34044896 9.18006505 15.26953125 14.1015625 C16.03174484 14.86044769 16.79395844 15.61933289 17.57926941 16.4012146 C19.17809561 17.99500721 20.77559554 19.59013129 22.37182617 21.18652344 C24.81734692 23.62984256 27.27077412 26.06503475 29.72460938 28.5 C31.28173886 30.05419787 32.83839625 31.60886891 34.39453125 33.1640625 C35.49448174 34.25323471 35.49448174 34.25323471 36.61665344 35.3644104 C37.29463486 36.04546844 37.97261627 36.72652649 38.67114258 37.42822266 C39.26735916 38.02301422 39.86357574 38.61780579 40.4778595 39.23062134 C43.65127373 42.91948673 44.24449696 45.94461367 44.4609375 50.8046875 C43.15861368 57.00728059 37.44094556 61.96856945 33.21923828 66.39526367 C32.55993883 67.09209102 31.90063938 67.78891836 31.22136116 68.50686169 C24.09288167 76.01008945 16.80806402 83.35592465 9.4921875 90.67578125 C8.06821998 92.10297457 6.64432212 93.53023741 5.2204895 94.95756531 C2.27276335 97.91120517 -0.6769456 100.86284774 -3.62792969 103.81323242 C-7.40437973 107.58957967 -11.17382919 111.37283598 -14.94168282 115.15775776 C-17.86362889 118.09080765 -20.79009364 121.0193163 -23.71786118 123.94655418 C-25.11090742 125.34077701 -26.50234049 126.73661367 -27.89209366 128.13411903 C-29.82455223 130.07637236 -31.76323948 132.01219182 -33.70361328 133.9465332 C-34.26986923 134.51840866 -34.83612518 135.09028412 -35.41954041 135.67948914 C-39.5201193 139.74774457 -43.35654863 143.42666051 -49.4375 143.4375 C-50.15808594 143.45683594 -50.87867188 143.47617188 -51.62109375 143.49609375 C-57.16602433 142.33976176 -61.29719155 137.95218219 -65.17919922 134.0637207 C-65.65800034 133.58681793 -66.13680145 133.10991516 -66.63011169 132.61856079 C-68.19321615 131.05912695 -69.74906208 129.49267301 -71.3046875 127.92578125 C-72.39433882 126.83493663 -73.48436138 125.74446273 -74.57473755 124.65434265 C-76.84883928 122.37868285 -79.11955905 120.09972053 -81.38769531 117.81811523 C-84.30142773 114.88730278 -87.2217913 111.96320785 -90.14445305 109.04130268 C-92.39057523 106.79490943 -94.63408859 104.5459264 -96.8767128 102.29604149 C-97.95345904 101.21610559 -99.03081864 100.13678089 -100.10879135 99.05806923 C-101.60745773 97.55724757 -103.10279288 96.05318863 -104.59716797 94.5480957 C-105.44955048 93.6919014 -106.30193298 92.83570709 -107.18014526 91.9535675 C-109 90 -109 90 -109 89 C-107.9805127 88.823479 -106.96102539 88.64695801 -105.91064453 88.46508789 C-102.13437195 87.81038394 -98.35882972 87.15155011 -94.58349609 86.49145508 C-92.9482764 86.20614415 -91.31285986 85.92195909 -89.67724609 85.63891602 C-87.32857653 85.23227856 -84.98064075 84.82161979 -82.6328125 84.41015625 C-81.89942657 84.28407486 -81.16604065 84.15799347 -80.41043091 84.02809143 C-76.59195628 83.38319363 -76.59195628 83.38319363 -73 82 C-70.70190464 81.69130062 -68.40279871 81.49116352 -66.09375 81.28125 C-63.94556067 81.107845 -63.94556067 81.107845 -62 80 C-59.92945354 79.72421897 -57.85848156 79.55578415 -55.77734375 79.37890625 C-53.41250162 79.05627659 -51.17791037 78.60822584 -48.85546875 78.07421875 C-45.50656054 77.30619046 -42.16716709 76.67677356 -38.7734375 76.140625 C-37.8865625 75.99367188 -36.9996875 75.84671875 -36.0859375 75.6953125 C-34.27346303 75.39758615 -32.45819517 75.11640844 -30.640625 74.8515625 C-23.43468134 73.61205616 -19.17220585 70.95842186 -14.61206055 65.26806641 C-7.22941223 54.51378216 -5.91763525 41.46636568 -4.3125 28.875 C-4.09934251 27.27980924 -3.88515504 25.68475577 -3.66992188 24.08984375 C-2.81852809 17.71609007 -2.00423315 11.34982421 -1.41796875 4.9453125 C-1 1 -1 1 0 0 Z " fill="#0267A2" transform="translate(181,78)"/>
<path d="M0 0 C4.15997183 1.64006082 6.96721658 4.67165112 10.06616211 7.77563477 C10.66343613 8.36619156 11.26071014 8.95674835 11.87608337 9.56520081 C13.84851127 11.51863749 15.81331517 13.47952717 17.77734375 15.44140625 C19.14955698 16.80719015 20.52191943 18.17282414 21.89442444 19.53831482 C24.7719828 22.40389601 27.64537421 25.27358401 30.51635742 28.14575195 C34.1823609 31.81195814 37.86189622 35.46424278 41.54520321 39.11305332 C44.38579642 41.93131929 47.21716166 44.75872052 50.04608345 47.58869743 C51.39794741 48.93821223 52.75303048 50.28451074 54.11146355 51.6274128 C71.27816955 68.61620413 71.27816955 68.61620413 72.25 81.25 C71.27914705 95.81279421 59.77310278 104.37103263 50.04907227 114.15966797 C49.08845666 115.12985533 48.12800217 116.10020222 47.16769409 117.07069397 C44.05438327 120.21495725 40.93590296 123.35406276 37.81640625 126.4921875 C37.28268615 127.02920493 36.74896604 127.56622235 36.1990726 128.11951303 C31.15399386 133.19531157 26.10688219 138.26908075 21.05494785 143.33805656 C14.63030499 149.78464435 8.21597353 156.241129 1.81511074 162.71133125 C-2.70968363 167.28345166 -7.24599526 171.84394308 -11.79088551 176.39608681 C-14.49597815 179.10611456 -17.19586155 181.82087995 -19.88339043 184.54833603 C-22.40911662 187.11110404 -24.94890625 189.65907061 -27.49982071 192.19676018 C-28.86769497 193.56471345 -30.22072341 194.94746256 -31.57310486 196.33073425 C-38.21633358 202.89672825 -44.59246736 206.90034896 -54.0625 207.5 C-70.77777587 206.63946318 -83.23936023 188.91891277 -94.17797852 177.95239258 C-96.68849074 175.43650714 -99.20432064 172.92602814 -101.72070312 170.41601562 C-103.33886249 168.79719563 -104.95671172 167.17806555 -106.57421875 165.55859375 C-107.68696419 164.44888466 -107.68696419 164.44888466 -108.82218933 163.3167572 C-112.8432494 159.2777936 -116.67406496 155.1398676 -120.39585876 150.82429504 C-122.6566742 148.25320324 -125.05000132 145.87299825 -127.49609375 143.4765625 C-128.47603289 142.50923759 -129.45584733 141.54178632 -130.43554688 140.57421875 C-131.95024802 139.08455194 -133.46655103 137.59657683 -134.98510742 136.11083984 C-136.47224382 134.65371557 -137.95325005 133.19058243 -139.43359375 131.7265625 C-140.31072021 130.86627441 -141.18784668 130.00598633 -142.09155273 129.11962891 C-144 127 -144 127 -144 125 C-141.77149723 124.66225668 -139.54216533 124.3299813 -137.3125 124 C-136.07113281 123.814375 -134.82976562 123.62875 -133.55078125 123.4375 C-131.79314453 123.2209375 -131.79314453 123.2209375 -130 123 C-129.24050049 122.84853516 -128.48100098 122.69707031 -127.69848633 122.54101562 C-123.24542104 123.29843558 -121.15875692 126.60914141 -118.2734375 129.90625 C-116.84592077 131.47871705 -115.41432909 133.04749082 -113.97949219 134.61328125 C-113.19022339 135.4758252 -112.40095459 136.33836914 -111.58776855 137.22705078 C-106.77514845 142.38406188 -101.77726794 147.35735997 -96.7890625 152.34375 C-95.70936981 153.4246408 -94.62967824 154.50553274 -93.54998779 155.58642578 C-91.35743963 157.78001296 -89.16317744 159.97186886 -86.96777344 162.16259766 C-84.14224027 164.98232827 -81.3213657 167.80667101 -78.501688 170.63225555 C-76.31083 172.82671295 -74.11761408 175.0188012 -71.92365646 177.2101593 C-70.88069694 178.25245324 -69.83847562 179.2954864 -68.79701614 180.33927917 C-67.35748853 181.78133427 -65.91442915 183.21986121 -64.47119141 184.65820312 C-63.65341217 185.47518677 -62.83563293 186.29217041 -61.99307251 187.13391113 C-58.72269177 190.19592772 -55.9716026 190.68432385 -51.57781982 190.6099968 C-46.01704157 189.29413411 -42.3879928 184.55652392 -38.5390625 180.57666016 C-37.52651733 179.56321257 -36.51199154 178.55174059 -35.49565125 177.542099 C-32.75039677 174.80368201 -30.03378934 172.03837148 -27.32168961 169.26716661 C-24.47799372 166.3708192 -21.60908605 163.49966141 -18.74291992 160.62557983 C-13.93697437 155.79943011 -9.14755753 150.95739791 -4.36962891 146.10351562 C2.3738415 139.25287397 9.14559126 132.43074485 15.92372131 125.61441731 C24.99632337 116.48784204 34.06073495 107.35288088 43.09218407 98.18556404 C44.07136761 97.19224117 45.05137547 96.19973015 46.03225136 95.20807838 C47.36721796 93.85799129 48.69872379 92.50448475 50.0300293 91.15078735 C50.77697556 90.39307352 51.52392181 89.63535969 52.29350281 88.85468483 C55.06142388 85.84640492 55.53789377 83.28627289 55.45655823 79.18389893 C53.8297109 71.40204349 43.55986234 64.58726251 38.00009346 59.26114655 C34.60313009 55.99653769 31.23887278 52.69812352 27.86750889 49.40712357 C24.91853436 46.53217254 21.95956255 43.66906566 18.9777832 40.828125 C16.07082609 38.05718589 13.19464931 35.25737299 10.33653069 32.43611908 C9.25029812 31.37440271 8.15349327 30.32338334 7.04583931 29.28403473 C-1.52839106 21.22204654 -1.52839106 21.22204654 -2.69094849 15.74450684 C-2.75906912 10.23149297 -1.88067482 5.17185575 0 0 Z " fill="#AAABAF" transform="translate(185,47)"/>
<path d="M0 0 C6.16634321 3.69591217 11.28017123 8.52117291 16.4440918 13.46923828 C17.52449767 14.49113371 18.61981994 15.49748172 19.72924805 16.48779297 C23.35252904 19.72812557 26.49537767 22.80672115 29 27 C29.14241225 31.50843524 27.78797601 34.91268178 26 39 C25.55293122 40.44579371 25.12321415 41.89718253 24.71875 43.35546875 C24.31666363 44.63412925 23.91046887 45.91150571 23.5 47.1875 C23.28279297 47.86748047 23.06558594 48.54746094 22.84179688 49.24804688 C22.22828536 51.16549927 21.61416437 53.08275662 21 55 C20.731875 55.90363281 20.46375 56.80726562 20.1875 57.73828125 C17.94874176 65.10328705 14.69027277 71.82710845 8 76 C3.89796584 76.90993743 -0.23630629 77.23904789 -4.41796875 77.59765625 C-6.26915817 77.77703484 -6.26915817 77.77703484 -8.15774536 77.96003723 C-11.48123242 78.27859957 -14.80540863 78.58177441 -18.13095474 78.87752533 C-21.55808343 79.18577626 -24.98338338 79.51315763 -28.40893555 79.83837891 C-35.08112975 80.46858002 -41.75515204 81.07628384 -48.43005371 81.67718506 C-52.53680357 82.04854085 -56.64254275 82.43006214 -60.74815369 82.81376648 C-64.6024142 83.17329007 -68.45727408 83.52599281 -72.3125 83.875 C-73.32864883 83.96722336 -73.32864883 83.96722336 -74.36532593 84.06130981 C-80.58932562 84.62026755 -86.7484385 85.16621582 -93 85 C-87.75575531 78.57290424 -81.90191625 72.78566439 -76.02340889 66.94824409 C-74.15770352 65.09543651 -72.29525735 63.23940592 -70.43357849 61.3825531 C-65.81061701 56.77288035 -61.18221554 52.16868231 -56.55395508 47.56433105 C-52.63527904 43.6654825 -48.71872349 39.76452649 -44.80488396 35.86082268 C-42.98189488 34.04425232 -41.15588942 32.2307532 -39.32972717 30.41737366 C-34.16626863 25.27654057 -29.05294955 20.13389781 -24.33605957 14.57244873 C-22.3023057 12.17886257 -20.13620874 9.92911038 -17.9375 7.6875 C-16.74447266 6.45580078 -16.74447266 6.45580078 -15.52734375 5.19921875 C-10.68678438 0.98710912 -6.42305048 -0.80288131 0 0 Z " fill="#014973" transform="translate(135,33)"/>
<path d="M0 0 C1.84078125 -0.01546875 1.84078125 -0.01546875 3.71875 -0.03125 C11.17955031 1.01696161 16.5367009 4.91075242 21.78515625 10.11328125 C22.60408607 10.91224068 22.60408607 10.91224068 23.43955994 11.7273407 C24.57808061 12.8457806 25.71139857 13.9695399 26.83959961 15.09838867 C28.56951672 16.81948092 30.32903869 18.50599759 32.09179688 20.19335938 C33.19986427 21.28970172 34.30605434 22.38794545 35.41015625 23.48828125 C35.93706558 23.98644852 36.46397491 24.48461578 37.0068512 24.99787903 C38.44555664 26.47387695 38.44555664 26.47387695 40.5 29.5 C40.34036591 33.8783698 39.24975356 37.77252132 37.9375 41.9375 C37.53337891 43.23494141 37.53337891 43.23494141 37.12109375 44.55859375 C36.81365234 45.51958984 36.81365234 45.51958984 36.5 46.5 C32.22761834 44.85333941 29.40455258 41.63947497 26.2734375 38.43359375 C25.68454742 37.83950211 25.09565735 37.24541046 24.48892212 36.63331604 C22.61279192 34.73940726 20.74349895 32.83893569 18.875 30.9375 C16.99849536 29.03338558 15.12055424 27.13074561 13.23965454 25.23097229 C12.07052276 24.04957451 10.90407442 22.86551399 9.74057007 21.67857361 C6.39783229 18.29444967 4.71864767 16.7233886 0.0032959 15.85902405 C-5.42070123 15.96182741 -8.1463174 19.2325226 -11.81608582 22.89848328 C-12.71917984 23.84133682 -13.62227386 24.78419037 -14.55273438 25.75561523 C-15.53421039 26.75081759 -16.51752214 27.74421236 -17.5025177 28.7359314 C-19.61552349 30.87079566 -21.71543483 33.01748446 -23.80610657 35.17422295 C-27.11421331 38.58593973 -30.45226684 41.96727855 -33.79528809 45.34474182 C-40.28471213 51.90901428 -46.74500471 58.50150599 -53.200737 65.09889221 C-61.41653306 73.49434447 -69.63919888 81.88270175 -77.90032625 90.23358303 C-81.2196293 93.59112765 -84.52072214 96.96531077 -87.80870819 100.35351741 C-89.85977051 102.4600966 -91.92530903 104.55202289 -93.9949398 106.64034653 C-95.40336239 108.07041234 -96.79396497 109.51796067 -98.18391418 110.96598816 C-105.13800185 117.93595001 -105.13800185 117.93595001 -109.94274902 118.58045959 C-111.11664185 118.55390793 -112.29053467 118.52735626 -113.5 118.5 C-114.4796875 118.53222656 -115.459375 118.56445312 -116.46875 118.59765625 C-117.3040625 118.58605469 -118.139375 118.57445313 -119 118.5625 C-119.8559375 118.55347656 -120.711875 118.54445313 -121.59375 118.53515625 C-122.53734375 118.51775391 -122.53734375 118.51775391 -123.5 118.5 C-123.04238071 113.61944262 -121.92992712 111.28105109 -118.55567932 107.75424194 C-117.32929088 106.45846788 -117.32929088 106.45846788 -116.07812691 105.13651657 C-115.22734503 104.2664661 -114.37656315 103.39641563 -113.5 102.5 C-112.71820814 101.69044483 -111.93641628 100.88088966 -111.13093376 100.04680252 C-108.64097251 97.49088476 -106.12839152 94.9591629 -103.60913086 92.43212891 C-102.65510264 91.4718137 -101.70125582 90.51131825 -100.74757385 89.55065918 C-97.65681201 86.43915361 -94.56098709 83.33271162 -91.46484375 80.2265625 C-90.39112421 79.14878694 -89.3174353 78.07098088 -88.24377632 76.99314499 C-83.20491851 71.93531619 -78.16370791 66.8798472 -73.11954874 61.82730544 C-67.32122456 56.01918068 -61.53130812 50.20283744 -55.74825376 44.37950957 C-51.25652029 39.85758195 -46.75710498 35.34339046 -42.25190455 30.83488023 C-39.56963886 28.15027189 -36.89073475 25.4625061 -34.21995354 22.76646805 C-31.71124209 20.23440669 -29.19309277 17.71212106 -26.66756248 15.19683838 C-25.30985015 13.83985352 -23.96202567 12.47299764 -22.61459351 11.10580444 C-15.78835546 4.3371903 -10.02825998 -0.08427109 0 0 Z " fill="#AAABAF" transform="translate(131.5,2.5)"/>
<path d="M0 0 C2.5625 1.375 2.5625 1.375 5 4 C5.06144714 6.10903931 5.06144714 6.10903931 4.72729492 8.56884766 C4.61340424 9.46210754 4.49951355 10.35536743 4.38217163 11.2756958 C4.25605499 12.17471619 4.12993835 13.07373657 4 14 C3.80938604 15.56938763 3.61965808 17.13888318 3.4309082 18.70849609 C2.87621573 23.01326477 2.28826766 27.31329954 1.69067383 31.61230469 C1.43920116 33.44940263 1.19598965 35.28765093 0.96118164 37.12695312 C-2.15637325 61.47564425 -2.15637325 61.47564425 -10.359375 69.23046875 C-13.16887574 71.11316673 -15.04068241 71.73261462 -18.35546875 72.2734375 C-19.43143311 72.45527588 -20.50739746 72.63711426 -21.6159668 72.82446289 C-22.79457275 73.00614014 -23.97317871 73.18781738 -25.1875 73.375 C-27.06272339 73.68135376 -27.06272339 73.68135376 -28.97583008 73.99389648 C-42.16113853 76.12702325 -55.39478478 77.97458393 -68.62231445 79.82397461 C-76.53209195 80.93010668 -84.43777234 82.0413935 -92.32421875 83.3046875 C-93.53505127 83.49796631 -94.74588379 83.69124512 -95.9934082 83.89038086 C-98.1766731 84.24361865 -100.35890292 84.60334339 -102.53979492 84.97094727 C-103.48314697 85.12362061 -104.42649902 85.27629395 -105.3984375 85.43359375 C-106.59992432 85.63553345 -106.59992432 85.63553345 -107.82568359 85.84155273 C-111.44827984 86.10553937 -113.38956603 85.52688917 -116.140625 83.15234375 C-117.18476562 82.05599609 -117.18476562 82.05599609 -118.25 80.9375 C-119.30960938 79.83728516 -119.30960938 79.83728516 -120.390625 78.71484375 C-120.92171875 78.14894531 -121.4528125 77.58304687 -122 77 C-118.30129783 74.75362405 -114.41735091 74.28760591 -110.20898438 73.703125 C-109.427883 73.58900269 -108.64678162 73.47488037 -107.8420105 73.3572998 C-105.26015176 72.98169457 -102.67700382 72.61587625 -100.09375 72.25 C-98.28966137 71.98924845 -96.48566682 71.72784521 -94.6817627 71.46582031 C-89.92626928 70.7766786 -85.16965132 70.09563804 -80.41271973 69.41650391 C-74.67053577 68.5954012 -68.92956824 67.76584824 -63.18857574 66.9364624 C-58.71249377 66.28982689 -54.2362097 65.64475403 -49.75915527 65.00488281 C-45.85387264 64.44612675 -41.95033204 63.87643999 -38.04776001 63.29907227 C-36.13663816 63.0199558 -34.22352586 62.75456375 -32.31030273 62.49023438 C-31.24690674 62.33361328 -30.18351074 62.17699219 -29.08789062 62.015625 C-27.75014587 61.82661621 -27.75014587 61.82661621 -26.38537598 61.63378906 C-20.09616362 59.9627594 -16.22603678 54.6881146 -12.75 49.5 C-5.69861578 36.74668784 -4.22502054 20.6539488 -1.5090332 6.51098633 C-1.0650028 4.3206493 -0.5634398 2.16222794 0 0 Z " fill="#065F94" transform="translate(173,70)"/>
<path d="M0 0 C1.65 1.32 3.3 2.64 5 4 C3.91840002 9.33801404 2.80113185 14.66717457 1.65039062 19.99072266 C1.20261949 22.06250457 0.75883859 24.1351516 0.31835938 26.20849609 C-0.39216616 29.51889913 -1.13065325 32.82205331 -1.875 36.125 C-2.09494629 37.16648193 -2.31489258 38.20796387 -2.54150391 39.28100586 C-4.47494009 47.66753795 -7.585389 55.11313851 -15 60 C-18.52168965 61.17389655 -21.98476702 61.55731761 -25.65234375 61.98046875 C-26.43946747 62.07380997 -27.22659119 62.16715118 -28.03756714 62.26332092 C-30.67050874 62.5746107 -33.30397719 62.88116891 -35.9375 63.1875 C-37.79063061 63.40508711 -39.64373889 63.62286451 -41.49682617 63.84082031 C-46.56963746 64.43637352 -51.64299034 65.02720359 -56.71643066 65.61737061 C-60.10117195 66.01178942 -63.48567321 66.40821424 -66.87011719 66.80517578 C-72.70712747 67.48971714 -78.54448277 68.17123981 -84.3821106 68.85049438 C-86.65097308 69.11472774 -88.91975314 69.37966982 -91.18844604 69.64535522 C-114.23055466 72.34051161 -114.23055466 72.34051161 -125 73 C-128 68.375 -128 68.375 -128 65 C-119.31350115 63.44656798 -110.62776736 62.31950937 -101.85546875 61.37890625 C-100.5152038 61.2323728 -99.17497945 61.08546768 -97.83479309 60.93821716 C-94.32758176 60.55354375 -90.81999248 60.17245317 -87.31225586 59.79260254 C-63.60243843 57.24084057 -63.60243843 57.24084057 -39.92578125 54.40234375 C-39.01128708 54.28975723 -38.09679291 54.17717072 -37.15458679 54.06117249 C-27.59390852 52.95735224 -27.59390852 52.95735224 -19.375 48.375 C-18.84648437 47.92898437 -18.31796875 47.48296875 -17.7734375 47.0234375 C-12.83177296 41.38515065 -10.08437782 35.25722319 -8 28.125 C-7.63044189 26.91009888 -7.63044189 26.91009888 -7.25341797 25.6706543 C-4.68773149 17.15649201 -2.31790703 8.58446098 0 0 Z " fill="#085B8C" transform="translate(166,63)"/>
<path d="M0 0 C0.66 0 1.32 0 2 0 C5.96 8.25 9.92 16.5 14 25 C15.216875 22.545625 16.43375 20.09125 17.6875 17.5625 C20.64512104 11.62254579 23.67927049 5.74741646 27 0 C27.66 0 28.32 0 29 0 C29.18792114 1.4837915 29.18792114 1.4837915 29.37963867 2.99755859 C29.85029981 6.66479214 30.35128713 10.32734545 30.86157227 13.98925781 C31.07821616 15.5750587 31.28660438 17.16201012 31.48657227 18.75 C31.77540994 21.03217422 32.09365642 23.30856869 32.41796875 25.5859375 C32.50153122 26.29744965 32.58509369 27.00896179 32.67118835 27.74203491 C32.95689781 29.98456087 32.95689781 29.98456087 34 33 C36.47106087 34.55615349 36.47106087 34.55615349 39 35 C39 35.66 39 36.32 39 37 C35.04 37 31.08 37 27 37 C25.62807116 34.25614232 25.69548515 31.80794622 25.5 28.75 C25.21856003 24.38768042 24.72309133 20.33854798 24 16 C20.7 22.93 17.4 29.86 14 37 C13.34 37 12.68 37 12 37 C10.70506805 34.60588163 9.41397828 32.2098212 8.125 29.8125 C7.76019531 29.13896484 7.39539063 28.46542969 7.01953125 27.77148438 C6.48779297 26.78051758 6.48779297 26.78051758 5.9453125 25.76953125 C5.62062988 25.16729736 5.29594727 24.56506348 4.96142578 23.94458008 C3.84608432 21.68869011 2.93462337 19.33655843 2 17 C1.01 22.94 0.02 28.88 -1 35 C0.32 35 1.64 35 3 35 C3 35.66 3 36.32 3 37 C-0.96 37 -4.92 37 -9 37 C-9 36.34 -9 35.68 -9 35 C-8.01 35 -7.02 35 -6 35 C-5.85377197 33.97527588 -5.70754395 32.95055176 -5.55688477 31.89477539 C-5.01502618 28.10542667 -4.46770545 24.31688394 -3.91870117 20.52856445 C-3.68152353 18.88652789 -3.44584258 17.24427444 -3.21166992 15.60180664 C-2.87548574 13.24567439 -2.53398705 10.89036581 -2.19140625 8.53515625 C-2.08719864 7.79660904 -1.98299103 7.05806183 -1.87562561 6.2971344 C-1.11387171 1.11387171 -1.11387171 1.11387171 0 0 Z " fill="#007EC6" transform="translate(166,275)"/>
<path d="M0 0 C4.92156493 4.60979159 6.80081319 8.01219786 7.25 14.75 C7.14037059 20.1118747 6.04065187 24.77602716 2.34765625 28.80078125 C-3.48675936 33.96911136 -8.13441948 34.29637159 -15.83203125 34.2109375 C-21.28840422 33.84762783 -24.29028145 31.98854044 -27.8125 28 C-31.89890357 22.3957894 -31.48021822 16.70526917 -31 10 C-29.0489685 4.03851485 -25.08858828 0.8016765 -19.75 -2.3125 C-12.82227255 -4.04443186 -6.20357025 -3.69828226 0 0 Z M-21 3 C-25.09963563 8.62462087 -24.87333201 14.28828178 -24 21 C-22.49025917 24.91813692 -20.69723586 27.96031394 -17.07421875 30.1796875 C-13.72524383 31.50414086 -10.49675505 31.66737273 -7 31 C-2.44451385 27.73193385 -0.91142956 24.46857736 0 19 C0.089442 12.6943387 -1.24828582 8.06988402 -5 3 C-10.86888383 -0.87096593 -15.32969264 -1.32733983 -21 3 Z " fill="#4B4C4D" transform="translate(45,278)"/>
<path d="M0 0 C3.7654902 1.8827451 5.64643414 3.41192649 8.546875 6.3515625 C9.39121094 7.20234375 10.23554687 8.053125 11.10546875 8.9296875 C12.41451172 10.26386719 12.41451172 10.26386719 13.75 11.625 C14.63816406 12.5221875 15.52632812 13.419375 16.44140625 14.34375 C18.63213077 16.55803069 20.81666366 18.77843404 23 21 C23 15.06 23 9.12 23 3 C21.68 3 20.36 3 19 3 C19 2.34 19 1.68 19 1 C22.96 1 26.92 1 31 1 C31 1.66 31 2.32 31 3 C30.01 3.33 29.02 3.66 28 4 C27.67 13.24 27.34 22.48 27 32 C22.59485242 30.8987131 21.55041326 29.90616488 18.453125 26.74609375 C17.60878906 25.89208984 16.76445313 25.03808594 15.89453125 24.15820312 C15.02183594 23.26037109 14.14914063 22.36253906 13.25 21.4375 C12.36183594 20.53580078 11.47367188 19.63410156 10.55859375 18.70507812 C8.36560311 16.47671667 6.18190764 14.23921455 4 12 C4.33 17.61 4.66 23.22 5 29 C5.99 29.33 6.98 29.66 8 30 C8 30.66 8 31.32 8 32 C4.04 32 0.08 32 -4 32 C-4 31.34 -4 30.68 -4 30 C-3.01 30 -2.02 30 -1 30 C-0.67 20.1 -0.34 10.2 0 0 Z " fill="#4B4C4D" transform="translate(110,280)"/>
<path d="M0 0 C3.22886009 -0.11667875 6.45717445 -0.18740546 9.6875 -0.25 C11.05551758 -0.30027344 11.05551758 -0.30027344 12.45117188 -0.3515625 C16.727439 -0.41376275 19.31563919 -0.38393072 23.10546875 1.7421875 C25.76358247 4.91000138 25.71084607 6.74929014 25.5 10.7421875 C24.65822716 14.54331797 22.79590201 16.33723619 20 19 C17.29120665 20.35439668 14.99066732 20.06501451 12 20 C12 19.34 12 18.68 12 18 C12.804375 17.71125 13.60875 17.4225 14.4375 17.125 C17.1326468 16.26737432 17.1326468 16.26737432 18 14 C18.34092041 8.67032792 18.34092041 8.67032792 16 4 C13.525 3.01 13.525 3.01 11 2 C11 12.56 11 23.12 11 34 C12.65 34 14.3 34 16 34 C16 34.66 16 35.32 16 36 C10.72 36 5.44 36 0 36 C0 35.34 0 34.68 0 34 C1.485 33.505 1.485 33.505 3 33 C3.0740719 28.62178091 3.12856375 24.24389218 3.16479492 19.86523438 C3.179896 18.37526091 3.20037858 16.88533199 3.22631836 15.39550781 C3.26264584 13.2557477 3.27971221 11.11657434 3.29296875 8.9765625 C3.31653442 7.04417725 3.31653442 7.04417725 3.34057617 5.07275391 C3.22818604 4.05874512 3.1157959 3.04473633 3 2 C2.01 1.34 1.02 0.68 0 0 Z " fill="#007EC6" transform="translate(208,276)"/>
<path d="M0 0 C6.93 0 13.86 0 21 0 C21 2.31 21 4.62 21 7 C20.34 7 19.68 7 19 7 C18.67 6.01 18.34 5.02 18 4 C15.69 3.67 13.38 3.34 11 3 C11 6.3 11 9.6 11 13 C14.3 12.67 17.6 12.34 21 12 C20.67 14.31 20.34 16.62 20 19 C19.34 18.34 18.68 17.68 18 17 C15.67724823 16.59952556 13.34260643 16.2602896 11 16 C11.33 19.63 11.66 23.26 12 27 C16.79308342 27.46522293 16.79308342 27.46522293 20.9375 25.5 C21.288125 25.005 21.63875 24.51 22 24 C22 26.31 22 28.62 22 31 C15.07 31 8.14 31 1 31 C1 30.34 1 29.68 1 29 C1.99 29 2.98 29 4 29 C4 20.09 4 11.18 4 2 C2.68 1.67 1.36 1.34 0 1 C0 0.67 0 0.34 0 0 Z " fill="#4B4C4D" transform="translate(80,281)"/>
<path d="M0 0 C2.72943537 -0.05416741 5.45778564 -0.09375225 8.1875 -0.125 C9.34088867 -0.15013672 9.34088867 -0.15013672 10.51757812 -0.17578125 C14.76633884 -0.2122513 18.18401401 -0.11916892 22 2 C23.61469184 5.22938367 23.58079278 8.50856753 23 12 C20.9375 15 20.9375 15 18 17 C14.1875 17.3125 14.1875 17.3125 11 17 C11.804375 16.443125 12.60875 15.88625 13.4375 15.3125 C16.13768602 13.24722598 16.13768602 13.24722598 16.875 10.5 C16.99669295 8.06614092 16.76681968 6.30045905 16 4 C13.03 3.505 13.03 3.505 10 3 C10 11.58 10 20.16 10 29 C11.32 29 12.64 29 14 29 C14 29.66 14 30.32 14 31 C9.38 31 4.76 31 0 31 C0 30.34 0 29.68 0 29 C0.99 29 1.98 29 3 29 C3 20.42 3 11.84 3 3 C2.01 2.67 1.02 2.34 0 2 C0 1.34 0 0.68 0 0 Z " fill="#4B4C4D" transform="translate(55,281)"/>
<path d="M0 0 C4.62 0 9.24 0 14 0 C12.515 1.485 12.515 1.485 11 3 C10.58400923 6.29661571 10.58400923 6.29661571 10.70703125 10.07421875 C10.71127609 10.7580513 10.71552094 11.44188385 10.71989441 12.1464386 C10.73666647 14.32719561 10.77431343 16.50702309 10.8125 18.6875 C10.82754886 20.16730435 10.84123692 21.6471232 10.85351562 23.12695312 C10.88656431 26.75160336 10.93833554 30.37571094 11 34 C12.32 34 13.64 34 15 34 C15 34.66 15 35.32 15 36 C10.05 36 5.1 36 0 36 C0 35.34 0 34.68 0 34 C1.485 33.505 1.485 33.505 3 33 C3.0740719 28.62178091 3.12856375 24.24389218 3.16479492 19.86523438 C3.179896 18.37526091 3.20037858 16.88533199 3.22631836 15.39550781 C3.26264584 13.2557477 3.27971221 11.11657434 3.29296875 8.9765625 C3.31653442 7.04417725 3.31653442 7.04417725 3.34057617 5.07275391 C3.22818604 4.05874512 3.1157959 3.04473633 3 2 C2.01 1.34 1.02 0.68 0 0 Z " fill="#007EC6" transform="translate(236,276)"/>
<path d="M0 0 C3.46296437 0.50790144 4.80983262 2.32222684 7.15625 4.84375 C7.94644531 5.6790625 8.73664062 6.514375 9.55078125 7.375 C10.14246094 8.0246875 10.73414062 8.674375 11.34375 9.34375 C7.36306309 13.32443691 -0.1054375 13.50307581 -5.59375 13.59716797 C-10.1233754 13.04061598 -12.53944309 9.92073232 -15.28515625 6.578125 C-16.65625 4.34375 -16.65625 4.34375 -16.65625 2.34375 C-14.42774723 2.00600668 -12.19841533 1.6737313 -9.96875 1.34375 C-8.10669922 1.0653125 -8.10669922 1.0653125 -6.20703125 0.78125 C-4.13734756 0.52623947 -2.06808907 0.26763506 0 0 Z " fill="#ACADB1" transform="translate(35.65625,147.65625)"/>
<path d="M0 0 C1.8125 2.3125 1.8125 2.3125 3 5 C3.99 6.485 3.99 6.485 5 8 C-3.91 8.99 -3.91 8.99 -13 10 C-15.1519437 6.77208445 -15.20086443 5.71599191 -15 2 C-5.28888889 -0.72592593 -5.28888889 -0.72592593 0 0 Z " fill="#ACADB0" transform="translate(22,130)"/>
<path d="M0 0 C0.99 0.33 1.98 0.66 3 1 C3.26404456 7.86515862 2.25841946 14.25846717 1 21 C-1.0078125 19.7578125 -1.0078125 19.7578125 -3 18 C-3.2421875 16.0546875 -3.2421875 16.0546875 -2.875 13.875 C-2.68744141 12.69744141 -2.68744141 12.69744141 -2.49609375 11.49609375 C-1.73100709 7.64656321 -0.92863086 3.8136976 0 0 Z " fill="#ABACB0" transform="translate(179,41)"/>
<path d="M0 0 C0.99 0.33 1.98 0.66 3 1 C2.36934845 6.7809725 1.34844868 12.3443706 0 18 C-0.99 18 -1.98 18 -3 18 C-3.33 17.67 -3.66 17.34 -4 17 C-3.49675319 11.08684996 -1.80270488 5.63486999 0 0 Z " fill="#ADAEB1" transform="translate(174,36)"/>
<path d="M0 0 C1.58203125 1.08203125 1.58203125 1.08203125 3 3 C2.63671875 6.13671875 2.63671875 6.13671875 1.6875 9.6875 C1.22923828 11.45673828 1.22923828 11.45673828 0.76171875 13.26171875 C0.51035156 14.16535156 0.25898438 15.06898437 0 16 C-0.99 15.67 -1.98 15.34 -3 15 C-2.68917128 13.24970238 -2.37626821 11.49977306 -2.0625 9.75 C-1.88847656 8.77546875 -1.71445313 7.8009375 -1.53515625 6.796875 C-1.09620271 4.50278205 -0.59651408 2.25708029 0 0 Z " fill="#EBEBEC" transform="translate(177,38)"/>
<path d="M0 0 C1.32 1.32 2.64 2.64 4 4 C3.1875 7.4375 3.1875 7.4375 2 11 C1.01 11.33 0.02 11.66 -1 12 C-0.67 8.04 -0.34 4.08 0 0 Z " fill="#F2F2F3" transform="translate(182,43)"/>
<path d="M0 0 C0.99 0.99 1.98 1.98 3 3 C2.01 6.3 1.02 9.6 0 13 C-0.99 12.67 -1.98 12.34 -3 12 C-2.01 8.04 -1.02 4.08 0 0 Z " fill="#EFEFF0" transform="translate(172,33)"/>
<path d="M0 0 C0.99 0.99 1.98 1.98 3 3 C2.34 4.98 1.68 6.96 1 9 C0.34 9 -0.32 9 -1 9 C-0.67 6.03 -0.34 3.06 0 0 Z " fill="#F8F8F8" transform="translate(177,38)"/>
</svg>
